<svg width="96" height="70" viewBox="0 0 96 70" fill="none" xmlns="http://www.w3.org/2000/svg">
<path d="M17.0891 34.5L14.9891 34.8C16.1891 33.6 17.5891 32.7 19.1891 32.1C20.7891 31.5 22.8891 31.2 25.4891 31.2C30.0891 31.2 33.9891 32.8 37.1891 36C40.5891 39.2 42.2891 43.7 42.2891 49.5C42.2891 55.3 40.4891 60.1 36.8891 63.9C33.2891 67.5 28.4891 69.3 22.4891 69.3C16.4891 69.3 11.3891 67 7.18906 62.4C2.98906 57.8 0.889063 51.4 0.889063 43.2C0.889063 32.2 4.28906 22.8 11.0891 15C18.0891 6.99999 26.7891 2.29999 37.1891 0.899986V13.5C31.3891 14.7 26.5891 17.1 22.7891 20.7C18.9891 24.3 17.0891 28.9 17.0891 34.5ZM70.7891 34.5L68.3891 34.8C69.5891 33.6 70.9891 32.7 72.5891 32.1C74.3891 31.5 76.4891 31.2 78.8891 31.2C83.6891 31.2 87.6891 32.8 90.8891 36C94.2891 39.2 95.9891 43.7 95.9891 49.5C95.9891 55.3 94.0891 60.1 90.2891 63.9C86.6891 67.5 81.9891 69.3 76.1891 69.3C69.9891 69.3 64.7891 67 60.5891 62.4C56.3891 57.8 54.2891 51.4 54.2891 43.2C54.2891 32.2 57.6891 22.8 64.4891 15C71.4891 6.99999 80.2891 2.29999 90.8891 0.899986V13.5C85.0891 14.7 80.2891 17.1 76.4891 20.7C72.6891 24.3 70.7891 28.9 70.7891 34.5Z" fill="#7e0cf5"/>
</svg>
